<svg viewBox="0 0 512 512" xmlns="http://www.w3.org/2000/svg" role="img" aria-label="Evano Studio">
  <defs>
    <linearGradient id="ev-bg" x1="0" y1="0" x2="1" y2="1">
      <stop offset="0" stop-color="#FF7A3D" />
      <stop offset="0.55" stop-color="#FF4D6D" />
      <stop offset="1" stop-color="#FF2D78" />
    </linearGradient>
  </defs>
  <rect x="16" y="16" width="480" height="480" rx="132" fill="url(#ev-bg)" />
  <ellipse cx="256" cy="268" rx="180" ry="150" transform="rotate(-26 256 268)"
    fill="none" stroke="#ffffff" stroke-opacity="0.55" stroke-width="9"
    stroke-linecap="round" stroke-dasharray="150 600" />
  <g fill="#ffffff">
    <circle cx="92" cy="196" r="18" />
    <circle cx="126" cy="312" r="13" />
    <circle cx="416" cy="214" r="15" />
    <circle cx="372" cy="350" r="12" />
  </g>
  <line x1="256" y1="118" x2="256" y2="162" stroke="#ffffff" stroke-width="13" stroke-linecap="round" />
  <circle cx="256" cy="106" r="17" fill="#ffffff" />
  <rect x="148" y="160" width="216" height="186" rx="56" fill="#ffffff" />
  <rect x="172" y="184" width="168" height="138" rx="42" fill="#17141d" />
  <g fill="none" stroke="#ffffff" stroke-width="14" stroke-linecap="round" stroke-linejoin="round">
    <path d="M203 240 q17 -24 34 0" />
    <path d="M275 240 q17 -24 34 0" />
    <path d="M220 274 q36 28 72 0" />
  </g>
</svg>
